<svg xmlns="http://www.w3.org/2000/svg" viewBox="0 0 1440 900" width="1440" height="900" font-family="Helvetica Neue, Arial, sans-serif">

  <!-- FOND BLANC -->
  <rect width="1440" height="900" fill="#ffffff"/>

  <!-- ===== NAVBAR ===== -->
  <rect x="0" y="0" width="1440" height="60" fill="#ffffff"/>
  <line x1="0" y1="60" x2="1440" y2="60" stroke="#eeeeee" stroke-width="1"/>

  <text x="30" y="37" font-size="12" font-weight="700" fill="#111111">Accueil</text>
  <text x="100" y="37" font-size="12" font-weight="700" fill="#111111">Vêtements</text>

  <text x="720" y="33" font-size="16" font-weight="700" fill="#111111" letter-spacing="3" text-anchor="middle">VI CLOTHES</text>
  <text x="720" y="48" font-size="8" fill="#111111" text-anchor="middle">✦</text>

  <rect x="990" y="15" width="130" height="30" rx="15" fill="none" stroke="#111111" stroke-width="2"/>
  <text x="1055" y="35" font-size="11" font-weight="700" fill="#111111" text-anchor="middle">Recherche 🔍</text>

  <rect x="1130" y="15" width="285" height="30" rx="15" fill="#bbbbbb"/>
  <text x="1175" y="35" font-size="11" font-weight="700" fill="#111111">Service</text>
  <text x="1245" y="35" font-size="11" font-weight="700" fill="#111111">Contact</text>
  <text x="1325" y="35" font-size="11" font-weight="700" fill="#111111">À propos</text>

  <!-- ===== HEADER SECTION ===== -->
  <rect x="0" y="60" width="1440" height="100" fill="#f7f7f7"/>
  <text x="720" y="115" font-size="22" font-weight="700" fill="#111111" text-anchor="middle" letter-spacing="2">NOS VÊTEMENTS</text>
  <text x="720" y="145" font-size="13" fill="#888888" text-anchor="middle">Explorez l'univers VI CLOTHES et découvrez nos collections exclusives</text>

  <!-- ===== GRILLE PRODUITS ===== -->
  <!-- Ligne 1 -->
  <!-- Card 1 -->
  <rect x="80" y="190" width="390" height="290" rx="6" fill="#ffffff" stroke="#eeeeee" stroke-width="1"/>
  <rect x="80" y="190" width="390" height="210" rx="6" fill="#f0f0f0"/>
  <text x="275" y="300" font-size="12" fill="#cccccc" text-anchor="middle">[ Image ]</text>
  <text x="100" y="425" font-size="13" font-weight="700" fill="#111111">Vêtement 1</text>
  <text x="100" y="448" font-size="12" fill="#888888">XX,XX €</text>

  <!-- Card 2 -->
  <rect x="525" y="190" width="390" height="290" rx="6" fill="#ffffff" stroke="#eeeeee" stroke-width="1"/>
  <rect x="525" y="190" width="390" height="210" rx="6" fill="#f0f0f0"/>
  <text x="720" y="300" font-size="12" fill="#cccccc" text-anchor="middle">[ Image ]</text>
  <text x="545" y="425" font-size="13" font-weight="700" fill="#111111">Vêtement 2</text>
  <text x="545" y="448" font-size="12" fill="#888888">XX,XX €</text>

  <!-- Card 3 -->
  <rect x="970" y="190" width="390" height="290" rx="6" fill="#ffffff" stroke="#eeeeee" stroke-width="1"/>
  <rect x="970" y="190" width="390" height="210" rx="6" fill="#f0f0f0"/>
  <text x="1165" y="300" font-size="12" fill="#cccccc" text-anchor="middle">[ Image ]</text>
  <text x="990" y="425" font-size="13" font-weight="700" fill="#111111">Vêtement 3</text>
  <text x="990" y="448" font-size="12" fill="#888888">XX,XX €</text>

  <!-- Ligne 2 -->
  <!-- Card 4 -->
  <rect x="80" y="510" width="390" height="290" rx="6" fill="#ffffff" stroke="#eeeeee" stroke-width="1"/>
  <rect x="80" y="510" width="390" height="210" rx="6" fill="#f0f0f0"/>
  <text x="275" y="620" font-size="12" fill="#cccccc" text-anchor="middle">[ Image ]</text>
  <text x="100" y="745" font-size="13" font-weight="700" fill="#111111">Vêtement 4</text>
  <text x="100" y="768" font-size="12" fill="#888888">XX,XX €</text>

  <!-- Card 5 -->
  <rect x="525" y="510" width="390" height="290" rx="6" fill="#ffffff" stroke="#eeeeee" stroke-width="1"/>
  <rect x="525" y="510" width="390" height="210" rx="6" fill="#f0f0f0"/>
  <text x="720" y="620" font-size="12" fill="#cccccc" text-anchor="middle">[ Image ]</text>
  <text x="545" y="745" font-size="13" font-weight="700" fill="#111111">Vêtement 5</text>
  <text x="545" y="768" font-size="12" fill="#888888">XX,XX €</text>

  <!-- Card 6 -->
  <rect x="970" y="510" width="390" height="290" rx="6" fill="#ffffff" stroke="#eeeeee" stroke-width="1"/>
  <rect x="970" y="510" width="390" height="210" rx="6" fill="#f0f0f0"/>
  <text x="1165" y="620" font-size="12" fill="#cccccc" text-anchor="middle">[ Image ]</text>
  <text x="990" y="745" font-size="13" font-weight="700" fill="#111111">Vêtement 6</text>
  <text x="990" y="768" font-size="12" fill="#888888">XX,XX €</text>

  <!-- Bouton AFFICHER PLUS -->
  <rect x="570" y="830" width="300" height="38" rx="4" fill="none" stroke="#888888" stroke-width="2"/>
  <text x="720" y="854" font-size="12" font-weight="700" fill="#333333" text-anchor="middle" letter-spacing="1">AFFICHER PLUS</text>

</svg>
